<svg version="1.1" id="Layer_1" xmlns="http://www.w3.org/2000/svg" xmlns:xlink="http://www.w3.org/1999/xlink" x="0px" y="0px"
	 width="100%" viewBox="0 0 2000 2000" enable-background="new 0 0 2000 2000" xml:space="preserve">
<path fill="#424D83" opacity="1.000000" stroke="none" 
	d="
M1373.000000,2001.000000 
	C915.333313,2001.000000 458.166656,2001.000000 1.000000,2001.000000 
	C1.000000,1334.333374 1.000000,667.666687 1.000000,1.000000 
	C667.666687,1.000000 1334.333374,1.000000 2001.000000,1.000000 
	C2001.000000,667.666687 2001.000000,1334.333374 2001.000000,2001.000000 
	C1791.833374,2001.000000 1582.666626,2001.000000 1373.000000,2001.000000 
M926.807190,276.309204 
	C901.266052,296.610992 885.722473,322.877960 881.224915,355.158051 
	C873.329224,411.826569 905.775452,465.449799 959.543457,485.232941 
	C963.023743,486.513458 963.946106,488.174225 963.910217,491.671143 
	C963.735901,508.668549 963.831543,525.668701 963.831543,542.667847 
	C963.831543,544.447937 963.831543,546.228027 963.831543,548.492126 
	C961.046997,548.492126 958.905701,548.492126 956.764404,548.492126 
	C910.766663,548.491760 864.768860,548.526184 818.771301,548.426086 
	C815.019348,548.417969 812.309021,549.408325 809.578125,552.144104 
	C723.863220,638.011719 638.069702,723.800903 552.207581,809.521423 
	C549.500732,812.223755 548.420288,814.899719 548.429504,818.686340 
	C548.541931,864.850403 548.507385,911.014954 548.490723,957.179321 
	C548.489990,959.269897 548.297485,961.360352 548.175537,963.831543 
	C546.035889,963.831543 544.394897,963.831604 542.753845,963.831604 
	C525.921326,963.831543 509.086182,963.669006 492.258209,963.944641 
	C488.003082,964.014282 486.379669,962.581238 484.934875,958.681763 
	C464.263367,902.890442 404.492279,869.899902 347.378632,882.553162 
	C284.502350,896.483154 244.641174,952.306641 251.874207,1016.302124 
	C257.888855,1069.517578 302.257446,1114.321655 355.445343,1120.889771 
	C412.847717,1127.978149 465.305023,1096.266235 485.344452,1042.186279 
	C486.565430,1038.891235 488.158295,1038.059570 491.464142,1038.091064 
	C508.795044,1038.256348 526.128357,1038.161987 543.460876,1038.177856 
	C544.922729,1038.179199 546.384460,1038.327637 548.503845,1038.443848 
	C548.503845,1040.824463 548.503906,1042.936401 548.503845,1045.048340 
	C548.503113,1091.212769 548.536865,1137.377197 548.434692,1183.541382 
	C548.426697,1187.140015 549.423889,1189.697388 552.015869,1192.285278 
	C637.994568,1278.124756 723.904114,1364.033447 809.741577,1450.014038 
	C812.338806,1452.615601 814.920227,1453.578247 818.498779,1453.570923 
	C864.662964,1453.477417 910.827454,1453.508423 956.991821,1453.507812 
	C959.098206,1453.507812 961.204590,1453.507812 963.831787,1453.507812 
	C963.831787,1455.991943 963.831726,1457.784668 963.831726,1459.577393 
	C963.831604,1476.243286 963.707947,1492.910645 963.920349,1509.573853 
	C963.971924,1513.618774 962.954590,1515.556274 958.855347,1517.051514 
	C902.976257,1537.433350 869.864624,1597.535767 882.652588,1654.940063 
	C896.597107,1717.536011 952.290894,1757.252563 1016.144287,1750.135986 
	C1082.243042,1742.769409 1131.485474,1678.540527 1120.635742,1612.854248 
	C1112.925049,1566.171631 1086.360229,1534.107178 1042.328003,1516.703491 
	C1039.225708,1515.477173 1038.029785,1514.164551 1038.071533,1510.687256 
	C1038.282471,1493.190674 1038.161133,1475.690186 1038.181396,1458.191040 
	C1038.183105,1456.761963 1038.370728,1455.333252 1038.500122,1453.507690 
	C1041.085449,1453.507690 1043.231079,1453.507690 1045.376709,1453.507690 
	C1091.374390,1453.508301 1137.372314,1453.468872 1183.369751,1453.582764 
	C1187.172241,1453.592163 1189.827393,1452.438843 1192.513794,1449.748169 
	C1278.121338,1364.009277 1363.790405,1278.331665 1449.555054,1192.749878 
	C1452.567383,1189.744141 1453.578247,1186.765991 1453.568237,1182.673462 
	C1453.455078,1136.675903 1453.491699,1090.678101 1453.512207,1044.680298 
	C1453.513062,1042.606934 1453.744507,1040.533569 1453.885986,1038.168579 
	C1472.765015,1038.168579 1491.077393,1038.344482 1509.381958,1038.041870 
	C1513.820435,1037.968506 1515.609131,1039.348022 1517.120239,1043.449097 
	C1537.606079,1099.051025 1597.670044,1132.109863 1654.752808,1119.403809 
	C1717.604858,1105.413574 1757.271606,1049.738770 1750.113159,985.559326 
	C1744.198730,932.533020 1699.414062,887.416504 1646.419922,881.097961 
	C1588.744385,874.221191 1536.669678,905.770996 1516.580444,959.932861 
	C1515.441406,963.003845 1514.055054,963.928467 1510.897949,963.902283 
	C1493.233398,963.756104 1475.566895,963.839111 1457.901123,963.819031 
	C1456.611206,963.817566 1455.321655,963.619873 1453.496094,963.469177 
	C1453.496094,961.076233 1453.496216,958.944885 1453.496216,956.813538 
	C1453.496582,910.815796 1453.462524,864.818054 1453.562012,818.820496 
	C1453.570190,815.081055 1452.645142,812.354370 1449.894653,809.608887 
	C1364.023315,723.898438 1278.234131,638.105652 1192.509888,552.247925 
	C1189.821655,549.555420 1187.164795,548.408386 1183.364380,548.417725 
	C1137.200195,548.530762 1091.035767,548.495361 1044.871338,548.480286 
	C1042.777222,548.479614 1040.683228,548.306152 1038.167969,548.194458 
	C1038.167969,546.052856 1038.167969,544.419250 1038.168091,542.785583 
	C1038.168335,525.786438 1038.300049,508.785431 1038.067993,491.789429 
	C1038.015625,487.952698 1039.309937,486.400635 1042.817017,485.108612 
	C1098.630493,464.546417 1131.343994,406.267883 1119.726074,348.371521 
	C1102.066650,260.368744 999.035522,221.538742 926.807190,276.309204 
z"/>
<path fill="#FEFEFE" opacity="1.000000" stroke="none" 
	d="
M927.090210,276.093811 
	C999.035522,221.538742 1102.066650,260.368744 1119.726074,348.371521 
	C1131.343994,406.267883 1098.630493,464.546417 1042.817017,485.108612 
	C1039.309937,486.400635 1038.015625,487.952698 1038.067993,491.789429 
	C1038.300049,508.785431 1038.168335,525.786438 1038.168091,542.785583 
	C1038.167969,544.419250 1038.167969,546.052856 1038.167969,548.194458 
	C1040.683228,548.306152 1042.777222,548.479614 1044.871338,548.480286 
	C1091.035767,548.495361 1137.200195,548.530762 1183.364380,548.417725 
	C1187.164795,548.408386 1189.821655,549.555420 1192.509888,552.247925 
	C1278.234131,638.105652 1364.023315,723.898438 1449.894653,809.608887 
	C1452.645142,812.354370 1453.570190,815.081055 1453.562012,818.820496 
	C1453.462524,864.818054 1453.496582,910.815796 1453.496216,956.813538 
	C1453.496216,958.944885 1453.496094,961.076233 1453.496094,963.469177 
	C1455.321655,963.619873 1456.611206,963.817566 1457.901123,963.819031 
	C1475.566895,963.839111 1493.233398,963.756104 1510.897949,963.902283 
	C1514.055054,963.928467 1515.441406,963.003845 1516.580444,959.932861 
	C1536.669678,905.770996 1588.744385,874.221191 1646.419922,881.097961 
	C1699.414062,887.416504 1744.198730,932.533020 1750.113159,985.559326 
	C1757.271606,1049.738770 1717.604858,1105.413574 1654.752808,1119.403809 
	C1597.670044,1132.109863 1537.606079,1099.051025 1517.120239,1043.449097 
	C1515.609131,1039.348022 1513.820435,1037.968506 1509.381958,1038.041870 
	C1491.077393,1038.344482 1472.765015,1038.168579 1453.885986,1038.168579 
	C1453.744507,1040.533569 1453.513062,1042.606934 1453.512207,1044.680298 
	C1453.491699,1090.678101 1453.455078,1136.675903 1453.568237,1182.673462 
	C1453.578247,1186.765991 1452.567383,1189.744141 1449.555054,1192.749878 
	C1363.790405,1278.331665 1278.121338,1364.009277 1192.513794,1449.748169 
	C1189.827393,1452.438843 1187.172241,1453.592163 1183.369751,1453.582764 
	C1137.372314,1453.468872 1091.374390,1453.508301 1045.376709,1453.507690 
	C1043.231079,1453.507690 1041.085449,1453.507690 1038.500122,1453.507690 
	C1038.370728,1455.333252 1038.183105,1456.761963 1038.181396,1458.191040 
	C1038.161133,1475.690186 1038.282471,1493.190674 1038.071533,1510.687256 
	C1038.029785,1514.164551 1039.225708,1515.477173 1042.328003,1516.703491 
	C1086.360229,1534.107178 1112.925049,1566.171631 1120.635742,1612.854248 
	C1131.485474,1678.540527 1082.243042,1742.769409 1016.144287,1750.135986 
	C952.290894,1757.252563 896.597107,1717.536011 882.652588,1654.940063 
	C869.864624,1597.535767 902.976257,1537.433350 958.855347,1517.051514 
	C962.954590,1515.556274 963.971924,1513.618774 963.920349,1509.573853 
	C963.707947,1492.910645 963.831604,1476.243286 963.831726,1459.577393 
	C963.831726,1457.784668 963.831787,1455.991943 963.831787,1453.507812 
	C961.204590,1453.507812 959.098206,1453.507812 956.991821,1453.507812 
	C910.827454,1453.508423 864.662964,1453.477417 818.498779,1453.570923 
	C814.920227,1453.578247 812.338806,1452.615601 809.741577,1450.014038 
	C723.904114,1364.033447 637.994568,1278.124756 552.015869,1192.285278 
	C549.423889,1189.697388 548.426697,1187.140015 548.434692,1183.541382 
	C548.536865,1137.377197 548.503113,1091.212769 548.503845,1045.048340 
	C548.503906,1042.936401 548.503845,1040.824463 548.503845,1038.443848 
	C546.384460,1038.327637 544.922729,1038.179199 543.460876,1038.177856 
	C526.128357,1038.161987 508.795044,1038.256348 491.464142,1038.091064 
	C488.158295,1038.059570 486.565430,1038.891235 485.344452,1042.186279 
	C465.305023,1096.266235 412.847717,1127.978149 355.445343,1120.889771 
	C302.257446,1114.321655 257.888855,1069.517578 251.874207,1016.302124 
	C244.641174,952.306641 284.502350,896.483154 347.378632,882.553162 
	C404.492279,869.899902 464.263367,902.890442 484.934875,958.681763 
	C486.379669,962.581238 488.003082,964.014282 492.258209,963.944641 
	C509.086182,963.669006 525.921326,963.831543 542.753845,963.831604 
	C544.394897,963.831604 546.035889,963.831543 548.175537,963.831543 
	C548.297485,961.360352 548.489990,959.269897 548.490723,957.179321 
	C548.507385,911.014954 548.541931,864.850403 548.429504,818.686340 
	C548.420288,814.899719 549.500732,812.223755 552.207581,809.521423 
	C638.069702,723.800903 723.863220,638.011719 809.578125,552.144104 
	C812.309021,549.408325 815.019348,548.417969 818.771301,548.426086 
	C864.768860,548.526184 910.766663,548.491760 956.764404,548.492126 
	C958.905701,548.492126 961.046997,548.492126 963.831543,548.492126 
	C963.831543,546.228027 963.831543,544.447937 963.831543,542.667847 
	C963.831543,525.668701 963.735901,508.668549 963.910217,491.671143 
	C963.946106,488.174225 963.023743,486.513458 959.543457,485.232941 
	C905.775452,465.449799 873.329224,411.826569 881.224915,355.158051 
	C885.722473,322.877960 901.266052,296.610992 927.090210,276.093811 
M1237.948364,813.245300 
	C1237.682007,813.239624 1237.415649,813.233948 1237.149292,813.228271 
	C1237.237915,813.655640 1237.326416,814.083069 1237.652100,815.181030 
	C1241.713135,824.283875 1245.907837,833.330322 1249.778809,842.513306 
	C1251.718872,847.115906 1250.112427,850.895996 1246.191772,852.463501 
	C1242.390747,853.983093 1238.875854,852.051453 1236.904053,847.412903 
	C1234.368286,841.447693 1232.379761,835.151611 1229.098145,829.626038 
	C1224.816895,822.417175 1223.731567,815.781006 1228.858643,808.701538 
	C1230.282349,806.735596 1230.013672,805.020752 1228.068481,803.120422 
	C1218.174805,793.454468 1208.464722,783.600891 1198.648682,773.854919 
	C1197.879395,773.091187 1196.387329,771.915649 1195.914551,772.175415 
	C1192.488159,774.057373 1191.479004,771.039001 1190.019897,769.376038 
	C1164.713745,740.532043 1134.653931,718.118652 1099.563354,702.557129 
	C1096.775635,701.320923 1093.512695,700.587280 1090.468872,700.581360 
	C1030.971313,700.464966 971.473633,700.479309 911.976013,700.534424 
	C909.699951,700.536499 907.230042,700.759033 905.177002,701.639771 
	C842.071045,728.713135 797.755005,774.325745 772.104553,837.866943 
	C767.341309,849.666504 764.971191,862.417358 761.066284,874.591125 
	C760.342834,876.846619 757.847534,879.326233 755.627930,880.058105 
	C753.858765,880.641296 750.150269,879.328247 749.297363,877.767151 
	C748.027649,875.443237 747.686035,871.932983 748.396667,869.321411 
	C751.840942,856.665466 755.458984,844.036865 759.639221,831.608459 
	C762.203308,823.984924 765.891174,816.739380 769.447510,808.455078 
	C768.185547,809.301147 767.641907,809.551453 767.244568,809.948303 
	C745.666687,831.501221 724.067810,853.033508 702.615723,874.710999 
	C701.310486,876.030029 700.589417,878.510254 700.587036,880.451416 
	C700.488098,960.781555 700.481628,1041.111816 700.614380,1121.441772 
	C700.618042,1123.630615 701.731384,1126.342529 703.251892,1127.918213 
	C712.739990,1137.750488 722.483582,1147.336426 732.170044,1156.976440 
	C733.019592,1157.821899 734.067444,1158.468140 735.349304,1159.458862 
	C736.000671,1157.122681 736.537231,1155.394043 736.963867,1153.638672 
	C743.681335,1125.998047 746.095459,1097.839111 746.988586,1069.507568 
	C747.394836,1056.622314 747.309814,1056.616943 759.817261,1057.286377 
	C760.108459,1057.302002 760.386047,1057.571045 760.849487,1057.817383 
	C760.936035,1058.337036 761.148010,1058.972778 761.131409,1059.602417 
	C760.170288,1096.110718 757.873535,1132.446411 747.413147,1167.760620 
	C746.973328,1169.245361 747.084656,1171.701782 748.015686,1172.661255 
	C759.602905,1184.603394 771.389709,1196.351929 783.486450,1208.513428 
	C784.491821,1206.309937 785.343872,1204.729980 785.952942,1203.061401 
	C790.340332,1191.040649 794.696106,1179.008179 799.023376,1166.965454 
	C800.644775,1162.453247 803.812622,1160.405273 807.657959,1161.518066 
	C811.800537,1162.716919 813.430481,1166.160156 812.154785,1171.035400 
	C811.944763,1171.838135 811.756531,1172.652954 811.466248,1173.427612 
	C806.219299,1187.429443 801.076477,1201.472778 795.599731,1215.384277 
	C794.511169,1218.149536 794.698425,1219.696045 796.804932,1221.752319 
	C806.225891,1230.948242 815.502441,1240.293213 824.757385,1249.657227 
	C827.052307,1251.979370 829.070679,1254.574585 831.793274,1257.708618 
	C863.312561,1193.545898 872.996765,1126.663818 871.968628,1057.167603 
	C875.024658,1057.167603 877.676025,1057.425415 880.257446,1057.109985 
	C884.616455,1056.577271 886.149048,1058.069458 885.906433,1062.585449 
	C884.826294,1082.692261 884.722656,1102.875366 882.971069,1122.917603 
	C878.672791,1172.098999 866.372009,1219.206665 844.171387,1263.500977 
	C842.874512,1266.088623 842.722961,1267.734253 845.013184,1269.957642 
	C854.936768,1279.591553 864.625427,1289.467407 874.439514,1299.214844 
	C875.393066,1300.161865 876.621399,1300.832153 877.916199,1301.771729 
	C911.256958,1223.272827 929.044128,1142.060303 932.057129,1057.605103 
	C936.566223,1057.605103 940.589233,1057.605103 944.955994,1057.605103 
	C945.149536,1099.897339 939.092529,1141.004883 930.463989,1181.792603 
	C921.820435,1222.651489 909.215698,1262.317017 893.208069,1301.031128 
	C894.218933,1301.268433 894.691895,1301.476562 895.164978,1301.476685 
	C938.829895,1301.493652 982.494873,1301.455200 1026.159424,1301.575806 
	C1029.459839,1301.584961 1030.482300,1299.802856 1031.395142,1297.388550 
	C1037.623901,1280.916504 1044.499390,1264.653931 1049.928711,1247.922241 
	C1060.329956,1215.868530 1066.468018,1182.817749 1070.999268,1149.461914 
	C1071.685791,1144.408447 1074.517822,1142.030151 1078.949707,1142.605469 
	C1082.973022,1143.127808 1085.317139,1146.394409 1084.700073,1150.997559 
	C1079.872681,1187.010620 1072.888184,1222.580444 1061.608887,1257.167480 
	C1056.785645,1271.957520 1050.996826,1286.432617 1045.588623,1301.209595 
	C1046.009277,1301.278564 1046.628296,1301.468140 1047.247681,1301.468750 
	C1063.080322,1301.486328 1078.913818,1301.405762 1094.745117,1301.551514 
	C1097.892700,1301.580444 1098.533325,1300.059570 1099.110229,1297.474609 
	C1107.219604,1261.127441 1116.418091,1224.990479 1123.370850,1188.425659 
	C1133.463379,1135.349243 1138.715210,1081.633545 1139.017334,1027.559082 
	C1139.103271,1012.170044 1140.440063,997.461548 1148.803345,984.098022 
	C1150.039673,982.122437 1150.786011,979.840271 1151.759155,977.700012 
	C1156.127686,1087.791504 1141.330200,1195.260132 1112.490723,1300.928101 
	C1120.819458,1302.578857 1126.630737,1300.941772 1132.293091,1294.888306 
	C1146.971313,1279.196655 1162.599731,1264.396851 1177.648560,1249.044800 
	C1179.704346,1246.947632 1181.436157,1243.873657 1181.935669,1241.010864 
	C1187.624878,1208.400513 1193.046631,1175.743286 1198.535645,1143.098022 
	C1199.531860,1137.173218 1202.298462,1134.424316 1206.624023,1135.092896 
	C1210.774292,1135.734375 1212.954712,1139.008545 1212.094604,1144.623413 
	C1207.962891,1171.594238 1203.648071,1198.536987 1199.138794,1226.003052 
	C1199.204834,1226.286865 1199.270996,1226.570557 1199.337036,1226.854370 
	C1199.625122,1226.637329 1199.913086,1226.420166 1200.828125,1225.964844 
	C1219.686035,1207.125977 1238.575439,1188.318359 1257.336670,1169.383667 
	C1258.700806,1168.006958 1259.867310,1165.719238 1259.893188,1163.838013 
	C1260.426514,1125.055542 1261.088135,1086.270508 1261.088745,1047.486084 
	C1261.089355,1004.347168 1258.536011,961.326721 1253.276978,918.486572 
	C1252.715210,913.910828 1255.124023,910.559509 1259.065674,910.032471 
	C1263.419312,909.450378 1266.468506,911.988220 1267.004517,916.919678 
	C1268.334961,929.162537 1269.778564,941.398743 1270.794189,953.669312 
	C1275.442139,1009.828430 1275.705322,1066.098999 1274.873413,1122.395264 
	C1274.729858,1132.115479 1274.853149,1141.839600 1274.853149,1151.903809 
	C1283.354492,1143.420532 1291.870117,1135.061035 1300.157471,1126.481079 
	C1301.214233,1125.386963 1301.443481,1123.142578 1301.444824,1121.430664 
	C1301.504883,1041.127563 1301.518433,960.824341 1301.385010,880.521484 
	C1301.381348,878.336792 1300.247314,875.634705 1298.725098,874.056580 
	C1289.358276,864.345154 1279.756836,854.858643 1270.177612,845.353760 
	C1259.546875,834.805786 1248.856567,824.318115 1237.948364,813.245300 
M965.701904,1600.222290 
	C953.333679,1615.744263 950.815979,1632.834839 959.484802,1650.594482 
	C967.777405,1667.583618 982.311829,1676.394775 1001.190369,1676.631104 
	C1022.685181,1676.900391 1041.130859,1661.637939 1046.205444,1640.442627 
	C1051.019775,1620.334106 1041.143921,1598.957397 1022.487000,1589.102783 
	C1003.625183,1579.140137 980.659119,1583.454468 965.701904,1600.222290 
M1017.087708,328.228729 
	C1009.573242,327.449921 1001.946777,325.446350 994.565186,326.121124 
	C972.110046,328.173737 953.974609,349.596069 954.483398,372.230286 
	C955.021240,396.154724 973.746643,416.366150 996.887207,417.999054 
	C1020.427124,419.660095 1040.726562,404.954376 1046.120361,382.332489 
	C1051.472046,359.887329 1039.919922,337.980011 1017.087708,328.228729 
M395.338409,1040.925781 
	C397.622467,1039.263550 400.017517,1037.733276 402.172760,1035.918091 
	C417.843933,1022.719666 422.628632,999.710388 413.663605,980.985107 
	C404.657715,962.174561 383.183289,951.024658 363.169098,955.416016 
	C343.681091,959.692017 330.839569,971.749939 326.551361,991.269836 
	C322.394531,1010.191528 328.598358,1026.372314 344.070068,1037.965332 
	C359.903168,1049.829102 377.130890,1050.559692 395.338409,1040.925781 
M1618.781860,1045.956177 
	C1623.886108,1046.356689 1629.027344,1047.360840 1634.088257,1047.051514 
	C1654.327393,1045.814209 1671.833618,1030.084473 1675.773438,1010.087036 
	C1679.805176,989.623352 1669.310303,968.399170 1650.678589,959.337158 
	C1632.121094,950.311279 1609.446533,954.691345 1595.911255,969.801025 
	C1572.860840,995.532227 1584.204102,1035.970215 1618.781860,1045.956177 
z"/>
<path fill="#434E84" opacity="1.000000" stroke="none" 
	d="
M1199.398315,1225.489624 
	C1203.648071,1198.536987 1207.962891,1171.594238 1212.094604,1144.623413 
	C1212.954712,1139.008545 1210.774292,1135.734375 1206.624023,1135.092896 
	C1202.298462,1134.424316 1199.531860,1137.173218 1198.535645,1143.098022 
	C1193.046631,1175.743286 1187.624878,1208.400513 1181.935669,1241.010864 
	C1181.436157,1243.873657 1179.704346,1246.947632 1177.648560,1249.044800 
	C1162.599731,1264.396851 1146.971313,1279.196655 1132.293091,1294.888306 
	C1126.630737,1300.941772 1120.819458,1302.578857 1112.490723,1300.928101 
	C1141.330200,1195.260132 1156.127686,1087.791504 1151.759155,977.700012 
	C1150.786011,979.840271 1150.039673,982.122437 1148.803345,984.098022 
	C1140.440063,997.461548 1139.103271,1012.170044 1139.017334,1027.559082 
	C1138.715210,1081.633545 1133.463379,1135.349243 1123.370850,1188.425659 
	C1116.418091,1224.990479 1107.219604,1261.127441 1099.110229,1297.474609 
	C1098.533325,1300.059570 1097.892700,1301.580444 1094.745117,1301.551514 
	C1078.913818,1301.405762 1063.080322,1301.486328 1047.247681,1301.468750 
	C1046.628296,1301.468140 1046.009277,1301.278564 1045.588623,1301.209595 
	C1050.996826,1286.432617 1056.785645,1271.957520 1061.608887,1257.167480 
	C1072.888184,1222.580444 1079.872681,1187.010620 1084.700073,1150.997559 
	C1085.317139,1146.394409 1082.973022,1143.127808 1078.949707,1142.605469 
	C1074.517822,1142.030151 1071.685791,1144.408447 1070.999268,1149.461914 
	C1066.468018,1182.817749 1060.329956,1215.868530 1049.928711,1247.922241 
	C1044.499390,1264.653931 1037.623901,1280.916504 1031.395142,1297.388550 
	C1030.482300,1299.802856 1029.459839,1301.584961 1026.159424,1301.575806 
	C982.494873,1301.455200 938.829895,1301.493652 895.164978,1301.476685 
	C894.691895,1301.476562 894.218933,1301.268433 893.208069,1301.031128 
	C909.215698,1262.317017 921.820435,1222.651489 930.463989,1181.792603 
	C939.092529,1141.004883 945.149536,1099.897339 944.955994,1057.605103 
	C940.589233,1057.605103 936.566223,1057.605103 932.057129,1057.605103 
	C929.044128,1142.060303 911.256958,1223.272827 877.916199,1301.771729 
	C876.621399,1300.832153 875.393066,1300.161865 874.439514,1299.214844 
	C864.625427,1289.467407 854.936768,1279.591553 845.013184,1269.957642 
	C842.722961,1267.734253 842.874512,1266.088623 844.171387,1263.500977 
	C866.372009,1219.206665 878.672791,1172.098999 882.971069,1122.917603 
	C884.722656,1102.875366 884.826294,1082.692261 885.906433,1062.585449 
	C886.149048,1058.069458 884.616455,1056.577271 880.257446,1057.109985 
	C877.676025,1057.425415 875.024658,1057.167603 871.968628,1057.167603 
	C872.996765,1126.663818 863.312561,1193.545898 831.793274,1257.708618 
	C829.070679,1254.574585 827.052307,1251.979370 824.757385,1249.657227 
	C815.502441,1240.293213 806.225891,1230.948242 796.804932,1221.752319 
	C794.698425,1219.696045 794.511169,1218.149536 795.599731,1215.384277 
	C801.076477,1201.472778 806.219299,1187.429443 811.466248,1173.427612 
	C811.756531,1172.652954 811.944763,1171.838135 812.154785,1171.035400 
	C813.430481,1166.160156 811.800537,1162.716919 807.657959,1161.518066 
	C803.812622,1160.405273 800.644775,1162.453247 799.023376,1166.965454 
	C794.696106,1179.008179 790.340332,1191.040649 785.952942,1203.061401 
	C785.343872,1204.729980 784.491821,1206.309937 783.486450,1208.513428 
	C771.389709,1196.351929 759.602905,1184.603394 748.015686,1172.661255 
	C747.084656,1171.701782 746.973328,1169.245361 747.413147,1167.760620 
	C757.873535,1132.446411 760.170288,1096.110718 761.131409,1059.602417 
	C761.148010,1058.972778 760.936035,1058.337036 760.849487,1057.817383 
	C760.386047,1057.571045 760.108459,1057.302002 759.817261,1057.286377 
	C747.309814,1056.616943 747.394836,1056.622314 746.988586,1069.507568 
	C746.095459,1097.839111 743.681335,1125.998047 736.963867,1153.638672 
	C736.537231,1155.394043 736.000671,1157.122681 735.349304,1159.458862 
	C734.067444,1158.468140 733.019592,1157.821899 732.170044,1156.976440 
	C722.483582,1147.336426 712.739990,1137.750488 703.251892,1127.918213 
	C701.731384,1126.342529 700.618042,1123.630615 700.614380,1121.441772 
	C700.481628,1041.111816 700.488098,960.781555 700.587036,880.451416 
	C700.589417,878.510254 701.310486,876.030029 702.615723,874.710999 
	C724.067810,853.033508 745.666687,831.501221 767.244568,809.948303 
	C767.641907,809.551453 768.185547,809.301147 769.447510,808.455078 
	C765.891174,816.739380 762.203308,823.984924 759.639221,831.608459 
	C755.458984,844.036865 751.840942,856.665466 748.396667,869.321411 
	C747.686035,871.932983 748.027649,875.443237 749.297363,877.767151 
	C750.150269,879.328247 753.858765,880.641296 755.627930,880.058105 
	C757.847534,879.326233 760.342834,876.846619 761.066284,874.591125 
	C764.971191,862.417358 767.341309,849.666504 772.104553,837.866943 
	C797.755005,774.325745 842.071045,728.713135 905.177002,701.639771 
	C907.230042,700.759033 909.699951,700.536499 911.976013,700.534424 
	C971.473633,700.479309 1030.971313,700.464966 1090.468872,700.581360 
	C1093.512695,700.587280 1096.775635,701.320923 1099.563354,702.557129 
	C1134.653931,718.118652 1164.713745,740.532043 1190.019897,769.376038 
	C1191.479004,771.039001 1192.488159,774.057373 1195.914551,772.175415 
	C1196.387329,771.915649 1197.879395,773.091187 1198.648682,773.854919 
	C1208.464722,783.600891 1218.174805,793.454468 1228.068481,803.120422 
	C1230.013672,805.020752 1230.282349,806.735596 1228.858643,808.701538 
	C1223.731567,815.781006 1224.816895,822.417175 1229.098145,829.626038 
	C1232.379761,835.151611 1234.368286,841.447693 1236.904053,847.412903 
	C1238.875854,852.051453 1242.390747,853.983093 1246.191772,852.463501 
	C1250.112427,850.895996 1251.718872,847.115906 1249.778809,842.513306 
	C1245.907837,833.330322 1241.713135,824.283875 1237.731201,814.672852 
	C1237.937744,814.044556 1238.064941,813.924316 1238.192261,813.804138 
	C1248.856567,824.318115 1259.546875,834.805786 1270.177612,845.353760 
	C1279.756836,854.858643 1289.358276,864.345154 1298.725098,874.056580 
	C1300.247314,875.634705 1301.381348,878.336792 1301.385010,880.521484 
	C1301.518433,960.824341 1301.504883,1041.127563 1301.444824,1121.430664 
	C1301.443481,1123.142578 1301.214233,1125.386963 1300.157471,1126.481079 
	C1291.870117,1135.061035 1283.354492,1143.420532 1274.853149,1151.903809 
	C1274.853149,1141.839600 1274.729858,1132.115479 1274.873413,1122.395264 
	C1275.705322,1066.098999 1275.442139,1009.828430 1270.794189,953.669312 
	C1269.778564,941.398743 1268.334961,929.162537 1267.004517,916.919678 
	C1266.468506,911.988220 1263.419312,909.450378 1259.065674,910.032471 
	C1255.124023,910.559509 1252.715210,913.910828 1253.276978,918.486572 
	C1258.536011,961.326721 1261.089355,1004.347168 1261.088745,1047.486084 
	C1261.088135,1086.270508 1260.426514,1125.055542 1259.893188,1163.838013 
	C1259.867310,1165.719238 1258.700806,1168.006958 1257.336670,1169.383667 
	C1238.575439,1188.318359 1219.686035,1207.125977 1200.317871,1225.901123 
	C1199.671143,1225.721558 1199.534668,1225.605591 1199.398315,1225.489624 
M954.165527,882.257507 
	C969.884399,875.115601 985.603210,867.973694 1001.322083,860.831726 
	C982.443909,861.820984 966.196838,868.601257 952.379395,882.072205 
	C952.367065,882.304382 952.354675,882.536560 952.342346,882.768677 
	C952.722107,882.676331 953.101868,882.583984 954.165527,882.257507 
M878.336548,951.842407 
	C825.422058,975.979553 772.507629,1000.116699 719.593140,1024.253784 
	C719.722900,1024.732056 719.852661,1025.210449 719.982422,1025.688721 
	C805.374023,1025.688721 890.765625,1025.688721 976.808716,1025.688721 
	C976.808716,1111.551758 976.808716,1196.827759 976.808716,1282.103882 
	C977.143066,1282.155151 977.477478,1282.206421 977.811829,1282.257690 
	C1049.892212,1124.355713 1121.972534,966.453674 1194.561401,807.437683 
	C1088.558228,855.829102 983.781006,903.660828 878.336548,951.842407 
M947.347229,753.828613 
	C973.597961,745.131836 1000.394714,742.994080 1027.673096,747.399963 
	C1067.341675,753.807129 1102.092529,770.478699 1131.822021,797.580200 
	C1132.860107,798.526489 1134.826294,799.559204 1135.878418,799.187744 
	C1139.741577,797.823975 1143.401367,795.884094 1147.262085,794.103699 
	C1097.880493,740.981384 998.197998,706.410889 911.383789,754.265259 
	C866.754944,778.865967 834.933228,814.697449 817.091248,862.561279 
	C806.586609,890.741455 802.468689,919.876465 804.691284,950.534973 
	C808.418457,948.832153 811.185181,947.221802 814.164856,946.298096 
	C817.569031,945.242798 817.927307,943.143555 818.105774,939.973694 
	C818.843567,926.870667 818.666809,913.530090 821.193115,900.744507 
	C835.463806,828.519104 877.628662,779.730835 947.347229,753.828613 
M1202.487305,973.086426 
	C1203.265625,984.872742 1204.623779,996.655334 1204.700439,1008.446228 
	C1204.855103,1032.244263 1204.358521,1056.047363 1204.031860,1079.847046 
	C1203.931885,1087.125122 1205.785034,1090.547974 1210.459717,1090.805298 
	C1215.144043,1091.063110 1217.655762,1087.617188 1217.958496,1080.580322 
	C1218.237305,1074.097046 1218.666748,1067.617920 1218.828735,1061.131958 
	C1220.133423,1008.894775 1217.039062,956.979370 1206.833130,905.642822 
	C1204.855713,895.695740 1201.869385,885.949280 1199.348511,876.110229 
	C1195.723267,881.350952 1193.249878,886.412476 1191.116943,891.613647 
	C1190.493408,893.134338 1190.532471,895.098999 1190.786987,896.781677 
	C1194.589478,921.921387 1198.479004,947.047852 1202.487305,973.086426 
M1044.505981,799.944336 
	C1030.130371,795.679321 1015.785400,792.134705 1000.440186,793.870728 
	C980.811584,796.091431 961.686768,799.863770 943.610046,808.051270 
	C938.298889,810.456909 936.498535,814.083679 938.358765,818.198303 
	C940.071167,821.985901 943.976318,822.603638 949.118225,820.861511 
	C960.103271,817.139587 971.036621,812.888672 982.344666,810.604431 
	C993.334045,808.384583 1004.926453,806.669128 1015.966309,807.729065 
	C1035.284790,809.583862 1053.448242,816.357422 1070.226318,826.438232 
	C1071.438965,827.166870 1073.411377,827.608398 1074.643799,827.148071 
	C1078.787231,825.600281 1082.755615,823.583984 1087.310913,821.510376 
	C1074.182617,811.771851 1060.139160,805.160095 1044.505981,799.944336 
M811.889709,1106.230225 
	C811.547363,1109.367554 810.911194,1112.507324 810.939148,1115.641357 
	C810.972046,1119.327393 813.472656,1121.964233 816.881897,1121.662598 
	C819.356934,1121.443604 821.802429,1119.203491 823.916504,1117.449219 
	C824.722900,1116.780029 824.688965,1114.965942 824.832397,1113.651245 
	C825.860657,1104.227051 827.213196,1094.817383 827.720398,1085.363281 
	C828.214905,1076.146118 827.827881,1066.881714 827.827881,1057.414917 
	C823.955322,1057.414917 819.718567,1057.414917 815.671997,1057.414917 
	C814.427307,1073.570679 813.203979,1089.448364 811.889709,1106.230225 
M871.746887,888.269226 
	C867.846497,899.477600 864.780823,910.859497 863.871887,923.489136 
	C868.598572,921.361938 872.602478,919.773010 876.367737,917.741638 
	C877.569458,917.093201 878.634216,915.371826 878.919312,913.970093 
	C881.888062,899.372864 886.797546,885.511414 893.969849,872.439392 
	C896.519897,867.791687 895.526123,863.732422 891.648376,861.752075 
	C887.951721,859.864197 884.138916,861.212646 881.900879,865.783081 
	C878.398987,872.934387 875.248718,880.257874 871.746887,888.269226 
M757.010864,934.350464 
	C756.941223,931.695923 757.036804,929.024353 756.764160,926.390808 
	C756.328186,922.180664 753.323425,919.544922 749.431030,919.890930 
	C745.323547,920.256226 742.871887,922.714661 743.068298,926.753479 
	C743.878784,943.420654 744.940674,960.075562 745.939270,977.234802 
	C749.114319,975.858704 751.595886,974.499451 754.246277,973.699219 
	C758.497986,972.415405 759.588257,969.896484 759.160889,965.562195 
	C758.168518,955.498291 757.715454,945.381226 757.010864,934.350464 
z"/>
<path fill="#434E84" opacity="1.000000" stroke="none" 
	d="
M965.935852,1599.952393 
	C980.659119,1583.454468 1003.625183,1579.140137 1022.487000,1589.102783 
	C1041.143921,1598.957397 1051.019775,1620.334106 1046.205444,1640.442627 
	C1041.130859,1661.637939 1022.685181,1676.900391 1001.190369,1676.631104 
	C982.311829,1676.394775 967.777405,1667.583618 959.484802,1650.594482 
	C950.815979,1632.834839 953.333679,1615.744263 965.935852,1599.952393 
z"/>
<path fill="#434E84" opacity="1.000000" stroke="none" 
	d="
M1017.434082,328.408905 
	C1039.919922,337.980011 1051.472046,359.887329 1046.120361,382.332489 
	C1040.726562,404.954376 1020.427124,419.660095 996.887207,417.999054 
	C973.746643,416.366150 955.021240,396.154724 954.483398,372.230286 
	C953.974609,349.596069 972.110046,328.173737 994.565186,326.121124 
	C1001.946777,325.446350 1009.573242,327.449921 1017.434082,328.408905 
z"/>
<path fill="#434E84" opacity="1.000000" stroke="none" 
	d="
M395.007660,1041.087891 
	C377.130890,1050.559692 359.903168,1049.829102 344.070068,1037.965332 
	C328.598358,1026.372314 322.394531,1010.191528 326.551361,991.269836 
	C330.839569,971.749939 343.681091,959.692017 363.169098,955.416016 
	C383.183289,951.024658 404.657715,962.174561 413.663605,980.985107 
	C422.628632,999.710388 417.843933,1022.719666 402.172760,1035.918091 
	C400.017517,1037.733276 397.622467,1039.263550 395.007660,1041.087891 
z"/>
<path fill="#434E84" opacity="1.000000" stroke="none" 
	d="
M1618.375854,1045.872314 
	C1584.204102,1035.970215 1572.860840,995.532227 1595.911255,969.801025 
	C1609.446533,954.691345 1632.121094,950.311279 1650.678589,959.337158 
	C1669.310303,968.399170 1679.805176,989.623352 1675.773438,1010.087036 
	C1671.833618,1030.084473 1654.327393,1045.814209 1634.088257,1047.051514 
	C1629.027344,1047.360840 1623.886108,1046.356689 1618.375854,1045.872314 
z"/>
<path fill="#434E84" opacity="1.000000" stroke="none" 
	d="
M1237.612793,814.337585 
	C1237.326416,814.083069 1237.237915,813.655640 1237.149292,813.228271 
	C1237.415649,813.233948 1237.682007,813.239624 1238.070312,813.524719 
	C1238.064941,813.924316 1237.937744,814.044556 1237.612793,814.337585 
z"/>
<path fill="#434E84" opacity="1.000000" stroke="none" 
	d="
M1200.004272,1226.020264 
	C1199.913086,1226.420166 1199.625122,1226.637329 1199.337158,1226.854370 
	C1199.270996,1226.570557 1199.204834,1226.286865 1199.268555,1225.746338 
	C1199.534668,1225.605591 1199.671143,1225.721558 1200.004272,1226.020264 
z"/>
<path fill="#FEFFFF" opacity="1.000000" stroke="none" 
	d="
M878.670227,951.667480 
	C983.781006,903.660828 1088.558228,855.829102 1194.561401,807.437683 
	C1121.972534,966.453674 1049.892212,1124.355713 977.811829,1282.257690 
	C977.477478,1282.206421 977.143066,1282.155151 976.808716,1282.103882 
	C976.808716,1196.827759 976.808716,1111.551758 976.808716,1025.688721 
	C890.765625,1025.688721 805.374023,1025.688721 719.982422,1025.688721 
	C719.852661,1025.210449 719.722900,1024.732056 719.593140,1024.253784 
	C772.507629,1000.116699 825.422058,975.979553 878.670227,951.667480 
z"/>
<path fill="#FBFBFC" opacity="1.000000" stroke="none" 
	d="
M946.962280,753.930664 
	C877.628662,779.730835 835.463806,828.519104 821.193115,900.744507 
	C818.666809,913.530090 818.843567,926.870667 818.105774,939.973694 
	C817.927307,943.143555 817.569031,945.242798 814.164856,946.298096 
	C811.185181,947.221802 808.418457,948.832153 804.691284,950.534973 
	C802.468689,919.876465 806.586609,890.741455 817.091248,862.561279 
	C834.933228,814.697449 866.754944,778.865967 911.383789,754.265259 
	C998.197998,706.410889 1097.880493,740.981384 1147.262085,794.103699 
	C1143.401367,795.884094 1139.741577,797.823975 1135.878418,799.187744 
	C1134.826294,799.559204 1132.860107,798.526489 1131.822021,797.580200 
	C1102.092529,770.478699 1067.341675,753.807129 1027.673096,747.399963 
	C1000.394714,742.994080 973.597961,745.131836 946.962280,753.930664 
z"/>
<path fill="#FBFBFC" opacity="1.000000" stroke="none" 
	d="
M1202.417725,972.631958 
	C1198.479004,947.047852 1194.589478,921.921387 1190.786987,896.781677 
	C1190.532471,895.098999 1190.493408,893.134338 1191.116943,891.613647 
	C1193.249878,886.412476 1195.723267,881.350952 1199.348511,876.110229 
	C1201.869385,885.949280 1204.855713,895.695740 1206.833130,905.642822 
	C1217.039062,956.979370 1220.133423,1008.894775 1218.828735,1061.131958 
	C1218.666748,1067.617920 1218.237305,1074.097046 1217.958496,1080.580322 
	C1217.655762,1087.617188 1215.144043,1091.063110 1210.459717,1090.805298 
	C1205.785034,1090.547974 1203.931885,1087.125122 1204.031860,1079.847046 
	C1204.358521,1056.047363 1204.855103,1032.244263 1204.700439,1008.446228 
	C1204.623779,996.655334 1203.265625,984.872742 1202.417725,972.631958 
z"/>
<path fill="#FAFBFC" opacity="1.000000" stroke="none" 
	d="
M1044.889893,800.044250 
	C1060.139160,805.160095 1074.182617,811.771851 1087.310913,821.510376 
	C1082.755615,823.583984 1078.787231,825.600281 1074.643799,827.148071 
	C1073.411377,827.608398 1071.438965,827.166870 1070.226318,826.438232 
	C1053.448242,816.357422 1035.284790,809.583862 1015.966309,807.729065 
	C1004.926453,806.669128 993.334045,808.384583 982.344666,810.604431 
	C971.036621,812.888672 960.103271,817.139587 949.118225,820.861511 
	C943.976318,822.603638 940.071167,821.985901 938.358765,818.198303 
	C936.498535,814.083679 938.298889,810.456909 943.610046,808.051270 
	C961.686768,799.863770 980.811584,796.091431 1000.440186,793.870728 
	C1015.785400,792.134705 1030.130371,795.679321 1044.889893,800.044250 
z"/>
<path fill="#FAFAFB" opacity="1.000000" stroke="none" 
	d="
M811.935181,1105.778076 
	C813.203979,1089.448364 814.427307,1073.570679 815.671997,1057.414917 
	C819.718567,1057.414917 823.955322,1057.414917 827.827881,1057.414917 
	C827.827881,1066.881714 828.214905,1076.146118 827.720398,1085.363281 
	C827.213196,1094.817383 825.860657,1104.227051 824.832397,1113.651245 
	C824.688965,1114.965942 824.722900,1116.780029 823.916504,1117.449219 
	C821.802429,1119.203491 819.356934,1121.443604 816.881897,1121.662598 
	C813.472656,1121.964233 810.972046,1119.327393 810.939148,1115.641357 
	C810.911194,1112.507324 811.547363,1109.367554 811.935181,1105.778076 
z"/>
<path fill="#FAFBFB" opacity="1.000000" stroke="none" 
	d="
M871.848206,887.888794 
	C875.248718,880.257874 878.398987,872.934387 881.900879,865.783081 
	C884.138916,861.212646 887.951721,859.864197 891.648376,861.752075 
	C895.526123,863.732422 896.519897,867.791687 893.969849,872.439392 
	C886.797546,885.511414 881.888062,899.372864 878.919312,913.970093 
	C878.634216,915.371826 877.569458,917.093201 876.367737,917.741638 
	C872.602478,919.773010 868.598572,921.361938 863.871887,923.489136 
	C864.780823,910.859497 867.846497,899.477600 871.848206,887.888794 
z"/>
<path fill="#FBFBFC" opacity="1.000000" stroke="none" 
	d="
M757.027344,934.818115 
	C757.715454,945.381226 758.168518,955.498291 759.160889,965.562195 
	C759.588257,969.896484 758.497986,972.415405 754.246277,973.699219 
	C751.595886,974.499451 749.114319,975.858704 745.939270,977.234802 
	C744.940674,960.075562 743.878784,943.420654 743.068298,926.753479 
	C742.871887,922.714661 745.323547,920.256226 749.431030,919.890930 
	C753.323425,919.544922 756.328186,922.180664 756.764160,926.390808 
	C757.036804,929.024353 756.941223,931.695923 757.027344,934.818115 
z"/>
<path fill="#F1F3F6" opacity="1.000000" stroke="none" 
	d="
M952.903687,881.910889 
	C966.196838,868.601257 982.443909,861.820984 1001.322083,860.831726 
	C985.603210,867.973694 969.884399,875.115601 953.681152,882.227295 
	C953.196838,882.197083 952.903687,881.910889 952.903687,881.910889 
z"/>
<path fill="#F1F3F6" opacity="1.000000" stroke="none" 
	d="
M953.339233,882.344360 
	C953.101868,882.583984 952.722107,882.676331 952.342346,882.768677 
	C952.354675,882.536560 952.367065,882.304382 952.641541,881.991577 
	C952.903687,881.910889 953.196838,882.197083 953.339233,882.344360 
z"/>
</svg>