<svg xmlns="http://www.w3.org/2000/svg" xmlns:xlink="http://www.w3.org/1999/xlink" width="500" zoomAndPan="magnify" viewBox="0 0 375 374.999991" height="500" preserveAspectRatio="xMidYMid meet" version="1.0"><defs><g/><clipPath id="id1"><path d="M 98 136 L 227 136 L 227 204.128906 L 98 204.128906 Z M 98 136 " clip-rule="nonzero"/></clipPath><clipPath id="id2"><path d="M 148 116.445312 L 277 116.445312 L 277 184 L 148 184 Z M 148 116.445312 " clip-rule="nonzero"/></clipPath><clipPath id="id3"><path d="M 93.058594 121 L 282 121 L 282 199 L 93.058594 199 Z M 93.058594 121 " clip-rule="nonzero"/></clipPath></defs><rect x="-37.5" width="450" fill="#ffffff" y="-37.499999" height="449.999989" fill-opacity="1"/><rect x="-37.5" width="450" fill="#ffffff" y="-37.499999" height="449.999989" fill-opacity="1"/><rect x="-37.5" width="450" fill="#ffffff" y="-37.499999" height="449.999989" fill-opacity="1"/><g clip-path="url(#id1)"><path fill="#1986c8" d="M 212.855469 187.503906 L 226.257812 200.902344 C 224.050781 202.898438 221.128906 204.117188 217.933594 204.117188 L 196.242188 204.117188 Z M 162.34375 136.992188 L 98.421875 200.902344 C 100.632812 202.898438 103.546875 204.117188 106.738281 204.117188 L 131.125 204.117188 C 137.96875 204.117188 143.566406 198.519531 143.566406 191.675781 L 143.566406 174.328125 C 143.566406 167.484375 145.414062 160.035156 147.675781 157.78125 C 148.773438 156.679688 151.101562 155.679688 153.992188 154.941406 C 159.460938 153.542969 165.214844 153.542969 170.683594 154.941406 C 173.574219 155.679688 175.90625 156.679688 177.003906 157.78125 C 179.257812 160.035156 181.105469 167.488281 181.105469 174.328125 L 181.109375 191.675781 C 181.109375 198.125 186.078125 203.460938 192.375 204.054688 L 210.898438 185.535156 Z M 162.34375 136.992188 " fill-opacity="1" fill-rule="nonzero"/></g><g clip-path="url(#id2)"><path fill="#39a3dc" d="M 162.34375 133.066406 L 148.863281 119.589844 C 151.074219 117.59375 153.988281 116.378906 157.179688 116.378906 L 179.027344 116.378906 Z M 212.855469 183.570312 L 276.777344 119.660156 C 274.558594 117.625 271.609375 116.378906 268.375 116.378906 L 243.988281 116.378906 C 237.144531 116.378906 231.546875 121.972656 231.546875 128.820312 L 231.546875 146.167969 C 231.546875 153.011719 229.695312 160.457031 227.445312 162.714844 C 226.34375 163.8125 224.011719 164.8125 221.121094 165.550781 C 215.652344 166.945312 209.898438 166.945312 204.429688 165.550781 C 201.542969 164.8125 199.210938 163.808594 198.117188 162.714844 C 195.859375 160.449219 194.007812 153.007812 194.011719 146.167969 L 194.011719 128.820312 C 194.007812 122.417969 189.117188 117.117188 182.886719 116.453125 L 164.300781 135.03125 Z M 212.855469 183.570312 " fill-opacity="1" fill-rule="nonzero"/></g><g clip-path="url(#id3)"><path fill="#e72264" d="M 160.378906 135.027344 L 96.453125 198.941406 C 94.457031 196.734375 93.234375 193.808594 93.234375 190.621094 L 93.234375 166.234375 C 93.234375 159.394531 98.835938 153.792969 105.679688 153.792969 L 123.03125 153.792969 C 129.875 153.792969 137.320312 151.945312 139.582031 149.6875 C 141.839844 147.429688 143.683594 139.980469 143.683594 133.140625 L 143.683594 129.871094 C 143.683594 126.679688 144.90625 123.761719 146.898438 121.550781 Z M 228.222656 198.933594 C 230.214844 196.726562 231.433594 193.804688 231.433594 190.617188 L 231.433594 187.347656 C 231.433594 180.503906 233.277344 173.0625 235.539062 170.804688 C 237.796875 168.542969 245.242188 166.699219 252.085938 166.699219 L 269.433594 166.699219 C 276.28125 166.699219 281.875 161.101562 281.878906 154.261719 L 281.878906 129.871094 C 281.878906 126.71875 280.683594 123.828125 278.734375 121.628906 L 214.820312 185.535156 Z M 228.222656 198.933594 " fill-opacity="1" fill-rule="nonzero"/></g><g fill="#000000" fill-opacity="1"><g transform="translate(102.301668, 239.703104)"><g><path d="M 5.925781 0 L 9.824219 0 L 9.824219 -14.660156 L 15.390625 -14.660156 L 15.390625 -18.195312 L 0.339844 -18.195312 L 0.339844 -14.660156 L 5.925781 -14.660156 Z M 5.925781 0 "/></g></g></g><g fill="#000000" fill-opacity="1"><g transform="translate(117.50696, 239.703104)"><g><path d="M 1.535156 0 L 5.148438 0 L 5.148438 -7.332031 C 5.925781 -8.8125 7.796875 -9.566406 9.800781 -9.203125 L 9.800781 -12.738281 C 7.433594 -12.972656 5.640625 -11.984375 4.730469 -10.605469 L 4.730469 -12.476562 L 1.535156 -12.476562 Z M 1.535156 0 "/></g></g></g><g fill="#000000" fill-opacity="1"><g transform="translate(127.14992, 239.703104)"><g><path d="M 5.042969 0.363281 C 6.914062 0.363281 8.371094 -0.234375 9.566406 -1.195312 L 9.617188 -1.117188 C 10.136719 -0.207031 11.101562 0.234375 12.296875 0.234375 C 13.023438 0.234375 13.75 0.078125 14.296875 -0.128906 L 14.296875 -2.496094 C 14.089844 -2.445312 13.855469 -2.390625 13.648438 -2.390625 C 13.179688 -2.390625 12.761719 -2.574219 12.761719 -3.222656 L 12.761719 -7.199219 C 12.761719 -11.308594 10.371094 -12.839844 6.601562 -12.839844 C 4.707031 -12.839844 2.808594 -12.347656 1.792969 -12.007812 L 1.792969 -8.863281 C 2.964844 -9.359375 4.472656 -9.824219 6.210938 -9.824219 C 8.164062 -9.824219 9.148438 -8.941406 9.148438 -7.71875 L 9.148438 -7.277344 C 8.242188 -7.488281 7.175781 -7.617188 6.1875 -7.617188 C 3.664062 -7.617188 0.703125 -6.628906 0.703125 -3.457031 C 0.703125 -0.988281 2.730469 0.363281 5.042969 0.363281 Z M 6.34375 -2.210938 C 5.25 -2.210938 4.417969 -2.808594 4.417969 -3.742188 C 4.417969 -5.015625 5.71875 -5.433594 7.019531 -5.433594 C 7.746094 -5.433594 8.578125 -5.304688 9.148438 -5.171875 L 9.148438 -3.273438 C 8.320312 -2.546875 7.355469 -2.210938 6.34375 -2.210938 Z M 6.34375 -2.210938 "/></g></g></g><g fill="#000000" fill-opacity="1"><g transform="translate(141.159568, 239.703104)"><g><path d="M 6.941406 0.363281 C 9.226562 0.363281 10.65625 -0.703125 11.4375 -1.820312 L 11.4375 0 L 14.636719 0 L 14.636719 -18.195312 L 11.023438 -18.195312 L 11.023438 -11.179688 C 10.214844 -12.035156 8.890625 -12.839844 6.941406 -12.839844 C 2.964844 -12.839844 0.832031 -9.644531 0.832031 -6.238281 C 0.832031 -2.832031 2.964844 0.363281 6.941406 0.363281 Z M 7.796875 -2.675781 C 5.746094 -2.675781 4.523438 -4.289062 4.523438 -6.238281 C 4.523438 -8.1875 5.746094 -9.800781 7.796875 -9.800781 C 9.359375 -9.800781 10.527344 -8.785156 11.023438 -7.71875 L 11.023438 -4.757812 C 10.527344 -3.691406 9.359375 -2.675781 7.796875 -2.675781 Z M 7.796875 -2.675781 "/></g></g></g><g fill="#000000" fill-opacity="1"><g transform="translate(156.806727, 239.703104)"><g><path d="M 8.058594 0.363281 C 9.929688 0.363281 11.464844 0.078125 12.632812 -0.414062 L 12.632812 -3.25 C 11.566406 -2.808594 10.292969 -2.523438 8.863281 -2.523438 C 6.8125 -2.523438 4.886719 -3.25 4.472656 -5.070312 L 13.257812 -5.070312 C 14.089844 -8.761719 12.425781 -12.839844 7.253906 -12.839844 C 4.445312 -12.839844 0.832031 -10.945312 0.832031 -6.238281 C 0.832031 -1.898438 4.105469 0.363281 8.058594 0.363281 Z M 4.445312 -7.410156 C 4.496094 -9.125 5.847656 -10.085938 7.382812 -10.085938 C 9.617188 -10.085938 10.113281 -8.265625 9.957031 -7.410156 Z M 4.445312 -7.410156 "/></g></g></g><g fill="#000000" fill-opacity="1"><g transform="translate(170.530458, 239.703104)"><g><path d="M 9.253906 0.363281 C 13.207031 0.363281 15.335938 -2.832031 15.335938 -6.238281 C 15.335938 -9.644531 13.207031 -12.839844 9.253906 -12.839844 C 7.277344 -12.839844 5.953125 -12.035156 5.148438 -11.179688 L 5.148438 -18.195312 L 1.535156 -18.195312 L 1.535156 0 L 4.730469 0 L 4.730469 -1.820312 C 5.535156 -0.703125 6.964844 0.363281 9.253906 0.363281 Z M 8.371094 -2.675781 C 6.8125 -2.675781 5.640625 -3.691406 5.148438 -4.757812 L 5.148438 -7.71875 C 5.640625 -8.785156 6.8125 -9.800781 8.371094 -9.800781 C 10.449219 -9.800781 11.644531 -8.1875 11.644531 -6.238281 C 11.644531 -4.289062 10.449219 -2.675781 8.371094 -2.675781 Z M 8.371094 -2.675781 "/></g></g></g><g fill="#000000" fill-opacity="1"><g transform="translate(186.20361, 239.703104)"><g><path d="M 1.558594 0 L 5.171875 0 L 5.171875 -18.976562 L 1.558594 -18.976562 Z M 1.558594 0 "/></g></g></g><g fill="#000000" fill-opacity="1"><g transform="translate(192.441584, 239.703104)"><g><path d="M 7.71875 0.363281 C 11.359375 0.363281 14.609375 -1.871094 14.609375 -6.238281 C 14.609375 -10.605469 11.359375 -12.839844 7.71875 -12.839844 C 4.105469 -12.839844 0.832031 -10.605469 0.832031 -6.238281 C 0.832031 -1.871094 4.105469 0.363281 7.71875 0.363281 Z M 7.71875 -2.886719 C 5.640625 -2.886719 4.523438 -4.316406 4.523438 -6.238281 C 4.523438 -8.164062 5.640625 -9.59375 7.71875 -9.59375 C 9.800781 -9.59375 10.917969 -8.164062 10.917969 -6.238281 C 10.917969 -4.316406 9.800781 -2.886719 7.71875 -2.886719 Z M 7.71875 -2.886719 "/></g></g></g><g fill="#000000" fill-opacity="1"><g transform="translate(207.360953, 239.703104)"><g><path d="M 7.640625 0.363281 C 9.226562 0.363281 10.632812 0.0507812 11.855469 -0.46875 L 11.855469 -3.664062 C 10.945312 -3.121094 9.644531 -2.78125 8.34375 -2.78125 C 6.394531 -2.78125 4.523438 -3.847656 4.523438 -6.238281 C 4.523438 -8.761719 6.445312 -9.722656 8.394531 -9.722656 C 9.59375 -9.722656 10.839844 -9.359375 11.722656 -8.785156 L 11.722656 -11.957031 C 10.605469 -12.554688 9.253906 -12.867188 7.875 -12.867188 C 4.417969 -12.867188 0.832031 -10.839844 0.832031 -6.058594 C 0.832031 -1.613281 4.238281 0.363281 7.640625 0.363281 Z M 7.640625 0.363281 "/></g></g></g><g fill="#000000" fill-opacity="1"><g transform="translate(219.603132, 239.703104)"><g><path d="M 1.535156 0 L 5.148438 0 L 5.148438 -4.964844 L 6.34375 -4.964844 L 10.191406 0 L 14.246094 0 L 9.359375 -6.34375 L 13.882812 -12.476562 L 9.800781 -12.476562 L 6.394531 -7.796875 L 5.148438 -7.796875 L 5.148438 -18.195312 L 1.535156 -18.195312 Z M 1.535156 0 "/></g></g></g><g fill="#000000" fill-opacity="1"><g transform="translate(233.300874, 239.703104)"><g><path d="M 1.535156 0 L 5.148438 0 L 5.148438 -8.136719 C 5.691406 -8.890625 6.65625 -9.695312 7.929688 -9.695312 C 9.304688 -9.695312 10.347656 -8.917969 10.347656 -7.253906 L 10.347656 0 L 13.960938 0 L 13.960938 -7.71875 C 13.960938 -10.605469 12.164062 -12.839844 8.890625 -12.839844 C 7.097656 -12.839844 5.691406 -12.007812 4.730469 -10.890625 L 4.730469 -12.476562 L 1.535156 -12.476562 Z M 1.535156 0 "/></g></g></g><g fill="#000000" fill-opacity="1"><g transform="translate(248.11628, 239.703104)"><g><path d="M 8.058594 0.363281 C 9.929688 0.363281 11.464844 0.078125 12.632812 -0.414062 L 12.632812 -3.25 C 11.566406 -2.808594 10.292969 -2.523438 8.863281 -2.523438 C 6.8125 -2.523438 4.886719 -3.25 4.472656 -5.070312 L 13.257812 -5.070312 C 14.089844 -8.761719 12.425781 -12.839844 7.253906 -12.839844 C 4.445312 -12.839844 0.832031 -10.945312 0.832031 -6.238281 C 0.832031 -1.898438 4.105469 0.363281 8.058594 0.363281 Z M 4.445312 -7.410156 C 4.496094 -9.125 5.847656 -10.085938 7.382812 -10.085938 C 9.617188 -10.085938 10.113281 -8.265625 9.957031 -7.410156 Z M 4.445312 -7.410156 "/></g></g></g><g fill="#000000" fill-opacity="1"><g transform="translate(261.840011, 239.703104)"><g><path d="M 6.964844 0.363281 C 8.214844 0.363281 9.359375 0.15625 10.320312 -0.183594 L 10.320312 -3.09375 C 9.59375 -2.832031 8.890625 -2.703125 8.058594 -2.703125 C 6.707031 -2.703125 6.082031 -3.25 6.082031 -4.550781 L 6.082031 -9.4375 L 10.007812 -9.4375 L 10.007812 -12.476562 L 6.082031 -12.476562 L 6.082031 -16.976562 L 2.46875 -16.117188 L 2.46875 -12.476562 L 0.363281 -12.476562 L 0.363281 -9.4375 L 2.46875 -9.4375 L 2.46875 -3.847656 C 2.46875 -0.753906 4.550781 0.363281 6.964844 0.363281 Z M 6.964844 0.363281 "/></g></g></g><g fill="#000000" fill-opacity="1"><g transform="translate(137.445207, 255.25308)"><g><path d="M 0.675781 0 L 3.03125 0 C 5.273438 0 6.335938 -1.324219 6.335938 -3.148438 C 6.335938 -4.976562 5.273438 -6.300781 3.03125 -6.300781 L 0.675781 -6.300781 Z M 2.023438 -1.1875 L 2.023438 -5.113281 L 3.03125 -5.113281 C 4.273438 -5.113281 4.960938 -4.445312 4.960938 -3.148438 C 4.960938 -1.855469 4.273438 -1.1875 3.03125 -1.1875 Z M 2.023438 -1.1875 "/></g></g></g><g fill="#000000" fill-opacity="1"><g transform="translate(145.203258, 255.25308)"><g><path d="M 0.675781 0 L 2.023438 0 L 2.023438 -6.300781 L 0.675781 -6.300781 Z M 0.675781 0 "/></g></g></g><g fill="#000000" fill-opacity="1"><g transform="translate(148.983274, 255.25308)"><g><path d="M 3.796875 0.125 C 4.5 0.125 5.21875 -0.0273438 5.851562 -0.296875 L 5.851562 -3.429688 L 4.554688 -3.429688 L 4.554688 -1.171875 C 4.375 -1.097656 4.132812 -1.0625 3.871094 -1.0625 C 2.941406 -1.0625 1.71875 -1.476562 1.71875 -3.148438 C 1.71875 -4.617188 2.816406 -5.21875 3.941406 -5.21875 C 4.582031 -5.21875 5.21875 -5.050781 5.695312 -4.726562 L 5.695312 -6.019531 C 5.113281 -6.28125 4.4375 -6.425781 3.761719 -6.425781 C 2.035156 -6.425781 0.332031 -5.4375 0.332031 -3.148438 C 0.332031 -0.835938 2.023438 0.125 3.796875 0.125 Z M 3.796875 0.125 "/></g></g></g><g fill="#000000" fill-opacity="1"><g transform="translate(156.372322, 255.25308)"><g><path d="M 0.675781 0 L 2.023438 0 L 2.023438 -6.300781 L 0.675781 -6.300781 Z M 0.675781 0 "/></g></g></g><g fill="#000000" fill-opacity="1"><g transform="translate(160.152338, 255.25308)"><g><path d="M 2.050781 0 L 3.402344 0 L 3.402344 -5.074219 L 5.328125 -5.074219 L 5.328125 -6.300781 L 0.117188 -6.300781 L 0.117188 -5.074219 L 2.050781 -5.074219 Z M 2.050781 0 "/></g></g></g><g fill="#000000" fill-opacity="1"><g transform="translate(166.677381, 255.25308)"><g><path d="M 4.066406 -6.300781 L 2.59375 -6.300781 L 0.0273438 0 L 1.429688 0 L 1.890625 -1.171875 L 4.769531 -1.171875 L 5.230469 0 L 6.632812 0 Z M 2.3125 -2.304688 L 3.1875 -4.546875 C 3.238281 -4.671875 3.277344 -4.796875 3.328125 -5.011719 C 3.382812 -4.796875 3.421875 -4.671875 3.464844 -4.546875 L 4.347656 -2.304688 Z M 2.3125 -2.304688 "/></g></g></g><g fill="#000000" fill-opacity="1"><g transform="translate(174.417432, 255.25308)"><g><path d="M 0.675781 0 L 5.121094 0 L 5.121094 -1.222656 L 2.023438 -1.222656 L 2.023438 -6.300781 L 0.675781 -6.300781 Z M 0.675781 0 "/></g></g></g><g fill="#000000" fill-opacity="1"><g transform="translate(180.735474, 255.25308)"><g/></g></g><g fill="#000000" fill-opacity="1"><g transform="translate(183.813486, 255.25308)"><g><path d="M 0.675781 0 L 2.023438 0 L 2.023438 -3.238281 C 2.023438 -3.527344 2.023438 -3.84375 2.007812 -4.105469 L 4.921875 0 L 6.199219 0 L 6.199219 -6.300781 L 4.851562 -6.300781 L 4.851562 -3.070312 C 4.851562 -2.773438 4.851562 -2.449219 4.867188 -2.195312 L 1.953125 -6.300781 L 0.675781 -6.300781 Z M 0.675781 0 "/></g></g></g><g fill="#000000" fill-opacity="1"><g transform="translate(191.769529, 255.25308)"><g><path d="M 0.675781 0 L 5.164062 0 L 5.164062 -1.1875 L 2.023438 -1.1875 L 2.023438 -2.582031 L 4.84375 -2.582031 L 4.84375 -3.769531 L 2.023438 -3.769531 L 2.023438 -5.113281 L 5.113281 -5.113281 L 5.113281 -6.300781 L 0.675781 -6.300781 Z M 0.675781 0 "/></g></g></g><g fill="#000000" fill-opacity="1"><g transform="translate(198.411565, 255.25308)"><g><path d="M 2.050781 0 L 3.402344 0 L 3.402344 -5.074219 L 5.328125 -5.074219 L 5.328125 -6.300781 L 0.117188 -6.300781 L 0.117188 -5.074219 L 2.050781 -5.074219 Z M 2.050781 0 "/></g></g></g><g fill="#000000" fill-opacity="1"><g transform="translate(204.936608, 255.25308)"><g><path d="M 2.007812 0 L 3.472656 0 L 4.726562 -4.292969 L 5.976562 0 L 7.453125 0 L 9.394531 -6.300781 L 7.929688 -6.300781 L 6.6875 -1.539062 L 5.320312 -6.300781 L 4.132812 -6.300781 L 2.773438 -1.539062 L 1.53125 -6.300781 L 0.0625 -6.300781 Z M 2.007812 0 "/></g></g></g><g fill="#000000" fill-opacity="1"><g transform="translate(215.475678, 255.25308)"><g><path d="M 3.671875 0.125 C 5.902344 0.125 7.019531 -1.441406 7.019531 -3.148438 C 7.019531 -4.859375 5.902344 -6.425781 3.671875 -6.425781 C 1.429688 -6.425781 0.324219 -4.859375 0.324219 -3.148438 C 0.324219 -1.441406 1.429688 0.125 3.671875 0.125 Z M 3.671875 -1.125 C 2.367188 -1.125 1.710938 -2.042969 1.710938 -3.148438 C 1.710938 -4.257812 2.367188 -5.175781 3.671875 -5.175781 C 4.96875 -5.175781 5.632812 -4.257812 5.632812 -3.148438 C 5.632812 -2.042969 4.96875 -1.125 3.671875 -1.125 Z M 3.671875 -1.125 "/></g></g></g><g fill="#000000" fill-opacity="1"><g transform="translate(223.890735, 255.25308)"><g><path d="M 0.675781 0 L 2.023438 0 L 2.023438 -2.203125 L 3.015625 -2.203125 L 4.714844 0 L 6.273438 0 L 4.402344 -2.375 C 5.15625 -2.617188 5.769531 -3.167969 5.769531 -4.246094 C 5.769531 -5.839844 4.492188 -6.300781 3.265625 -6.300781 L 0.675781 -6.300781 Z M 2.023438 -3.328125 L 2.023438 -5.113281 L 3.320312 -5.113281 C 3.898438 -5.113281 4.382812 -4.867188 4.382812 -4.222656 C 4.382812 -3.582031 3.898438 -3.328125 3.320312 -3.328125 Z M 2.023438 -3.328125 "/></g></g></g><g fill="#000000" fill-opacity="1"><g transform="translate(231.315776, 255.25308)"><g><path d="M 0.675781 0 L 2.023438 0 L 2.023438 -2.574219 L 2.914062 -2.574219 L 4.753906 0 L 6.265625 0 L 3.988281 -3.238281 L 6.136719 -6.300781 L 4.636719 -6.300781 L 2.914062 -3.796875 L 2.023438 -3.796875 L 2.023438 -6.300781 L 0.675781 -6.300781 Z M 0.675781 0 "/></g></g></g></svg>